<svg id="Layer_1" data-name="Layer 1" xmlns="http://www.w3.org/2000/svg" viewBox="0 0 82 23"><defs><style>.cls-1{fill:#e59770;}.cls-2{fill:#db7e56;}.cls-3{fill:#f9e8d4;}.cls-4{fill:#e8d0ba;}.cls-5{fill:#fcc927;}.cls-6{fill:#efad0a;}.cls-7{fill:none;}.cls-8{isolation:isolate;}.cls-9{fill:#ff4c2d;}</style></defs><g id="Group_59" data-name="Group 59"><g id="Group_30" data-name="Group 30"><path id="Path_26" data-name="Path 26" class="cls-1" d="M17.38,11.58a14.08,14.08,0,0,0-4.1-8.39,5.56,5.56,0,0,0-7.63,0,14.08,14.08,0,0,0-4.1,8.39s-1.23,5.88,4,9a7.71,7.71,0,0,0,7.77,0C18.61,17.46,17.38,11.58,17.38,11.58Z"/><path id="Path_27" data-name="Path 27" class="cls-2" d="M13.35,20.54a7.76,7.76,0,0,1-4.59,1,7.76,7.76,0,0,0,3.24-1c5.26-3.07,4-9,4-9a14.14,14.14,0,0,0-4.1-8.39A5.57,5.57,0,0,0,8.81,1.71a5.61,5.61,0,0,1,4.47,1.47,14.13,14.13,0,0,1,4.1,8.4S18.61,17.46,13.35,20.54Z"/><path id="Path_28" data-name="Path 28" class="cls-3" d="M26.36,11.61a14.14,14.14,0,0,0-4.1-8.39,5.56,5.56,0,0,0-7.63,0,14.08,14.08,0,0,0-4.1,8.39s-1.23,5.88,4,9a7.71,7.71,0,0,0,7.77,0C27.59,17.49,26.36,11.61,26.36,11.61Z"/><path id="Path_29" data-name="Path 29" class="cls-4" d="M22.33,20.57a7.76,7.76,0,0,1-4.59,1,7.76,7.76,0,0,0,3.24-1c5.26-3.07,4-9,4-9a14.14,14.14,0,0,0-4.1-8.39,5.5,5.5,0,0,0-3.12-1.46,5.54,5.54,0,0,1,4.47,1.47,14.08,14.08,0,0,1,4.1,8.39S27.59,17.49,22.33,20.57Z"/><circle id="Ellipse_15" data-name="Ellipse 15" class="cls-5" cx="18.44" cy="14.63" r="4.09"/><path id="Path_30" data-name="Path 30" class="cls-6" d="M22.53,14.63a4.08,4.08,0,0,1-6.79,3.06,4.09,4.09,0,0,0,4.19-6.87A4.09,4.09,0,0,1,22.53,14.63Z"/><path id="Path_31" data-name="Path 31" class="cls-7" d="M26.73,11.54a14.55,14.55,0,0,0-4.21-8.6,6,6,0,0,0-8.15,0l-.4.4c-.14-.14-.28-.29-.43-.43a6,6,0,0,0-8.14,0,14.57,14.57,0,0,0-4.22,8.6,9.86,9.86,0,0,0-.05,2.87,8.57,8.57,0,0,0,2.75,5.39.38.38,0,0,0,.5-.57,7.63,7.63,0,0,1-2.5-4.89,8.72,8.72,0,0,1,0-2.65v0a13.79,13.79,0,0,1,4-8.18,5.21,5.21,0,0,1,7.11,0c.15.14.3.29.44.44A13.58,13.58,0,0,0,12,6a.39.39,0,0,0,.15.52.37.37,0,0,0,.51-.15,12.07,12.07,0,0,1,2.22-2.86,5.21,5.21,0,0,1,7.11,0,13.81,13.81,0,0,1,4,8.18v0a9.36,9.36,0,0,1-.05,3.21,7.63,7.63,0,0,1-3.8,5.34,7.3,7.3,0,0,1-7.39,0A7.63,7.63,0,0,1,11,14.89a9.06,9.06,0,0,1,0-3.2v0a17.1,17.1,0,0,1,.82-3.24A.38.38,0,0,0,11,8.17h0a17.89,17.89,0,0,0-.85,3.37,9.58,9.58,0,0,0,0,3.46,8.42,8.42,0,0,0,3.07,5.14l-.12.07a7.27,7.27,0,0,1-6.91.25.39.39,0,0,0-.51.18.38.38,0,0,0,.18.5,8,8,0,0,0,7.62-.28c.14-.07.27-.16.4-.24.14.09.28.19.43.27a8.08,8.08,0,0,0,8.15,0A8.45,8.45,0,0,0,26.68,15,9.87,9.87,0,0,0,26.73,11.54Z"/><path id="Path_32" data-name="Path 32" class="cls-7" d="M18.45,19.09h0a4.47,4.47,0,0,0,0-8.93h0a4.47,4.47,0,0,0,0,8.93ZM15.82,12a3.71,3.71,0,0,1,2.63-1.09h0a3.71,3.71,0,0,1,0,7.42h0A3.71,3.71,0,0,1,15.82,12Z"/></g><g id="Breakfast" class="cls-8"><g class="cls-8"><path class="cls-9" d="M34.06,19.3V10.9h2.39a2.67,2.67,0,0,1,1.73.53,1.74,1.74,0,0,1,.63,1.39,2,2,0,0,1-.38,1.24,2.14,2.14,0,0,1-1.07.75v0a2.16,2.16,0,0,1,1.36.65,2,2,0,0,1,.51,1.41,2.2,2.2,0,0,1-.77,1.74,2.87,2.87,0,0,1-2,.67Zm1-7.51V14.5h1a1.91,1.91,0,0,0,1.27-.39,1.34,1.34,0,0,0,.46-1.1c0-.81-.53-1.22-1.61-1.22Zm0,3.6v3h1.34A2,2,0,0,0,37.72,18a1.4,1.4,0,0,0,.48-1.13c0-1-.68-1.48-2-1.48Z"/><path class="cls-9" d="M43.94,14.27a1.2,1.2,0,0,0-.73-.19,1.23,1.23,0,0,0-1,.58,2.64,2.64,0,0,0-.41,1.58V19.3h-1v-6h1v1.24h0a2.12,2.12,0,0,1,.63-1,1.4,1.4,0,0,1,.94-.36,1.5,1.5,0,0,1,.58.09Z"/><path class="cls-9" d="M49.8,16.54H45.56a2.3,2.3,0,0,0,.54,1.55,1.88,1.88,0,0,0,1.42.54A2.89,2.89,0,0,0,49.38,18v.91a3.47,3.47,0,0,1-2.09.57,2.53,2.53,0,0,1-2-.82,3.35,3.35,0,0,1-.72-2.3A3.28,3.28,0,0,1,45.36,14a2.54,2.54,0,0,1,2-.88,2.26,2.26,0,0,1,1.83.76A3.18,3.18,0,0,1,49.8,16Zm-1-.81a2,2,0,0,0-.41-1.3A1.35,1.35,0,0,0,47.32,14a1.57,1.57,0,0,0-1.16.48,2.24,2.24,0,0,0-.58,1.28Z"/><path class="cls-9" d="M55.55,19.3h-1v-.94h0a2.2,2.2,0,0,1-3.25.61,1.68,1.68,0,0,1-.5-1.26c0-1.13.66-1.78,2-2l1.8-.25c0-1-.41-1.53-1.24-1.53a2.94,2.94,0,0,0-2,.74v-1a3.76,3.76,0,0,1,2-.56c1.41,0,2.12.75,2.12,2.24Zm-1-3-1.45.2a2.59,2.59,0,0,0-1,.33,1,1,0,0,0-.34.85.9.9,0,0,0,.32.71,1.16,1.16,0,0,0,.83.28,1.55,1.55,0,0,0,1.18-.5,1.8,1.8,0,0,0,.47-1.27Z"/><path class="cls-9" d="M62.34,19.3H61l-2.65-2.88h0V19.3h-1V10.42h1v5.63h0l2.52-2.75h1.26l-2.78,2.89Z"/><path class="cls-9" d="M66.29,11.26a1.35,1.35,0,0,0-.64-.16c-.67,0-1,.43-1,1.27v.93h1.41v.82H64.64V19.3h-1V14.12h-1V13.3h1v-1a2,2,0,0,1,.54-1.49,1.84,1.84,0,0,1,1.36-.55,1.92,1.92,0,0,1,.7.1Z"/><path class="cls-9" d="M71.37,19.3h-1v-.94h0a2.2,2.2,0,0,1-3.25.61,1.65,1.65,0,0,1-.51-1.26c0-1.13.66-1.78,2-2l1.8-.25q0-1.53-1.23-1.53a2.91,2.91,0,0,0-2,.74v-1a3.76,3.76,0,0,1,2-.56c1.41,0,2.11.75,2.11,2.24Zm-1-3-1.44.2a2.59,2.59,0,0,0-1,.33,1,1,0,0,0-.34.85.89.89,0,0,0,.31.71,1.2,1.2,0,0,0,.84.28,1.56,1.56,0,0,0,1.18-.5,1.79,1.79,0,0,0,.46-1.27Z"/><path class="cls-9" d="M80.13,19.24a1.82,1.82,0,0,1-.9.19c-1,0-1.57-.59-1.57-1.76V14.12H75a2.33,2.33,0,0,0-.48,0,1.06,1.06,0,0,0-.38.12.61.61,0,0,0-.24.21.66.66,0,0,0-.08.32.87.87,0,0,0,.08.39,1,1,0,0,0,.25.29,2.11,2.11,0,0,0,.4.22l.53.21c.27.11.51.21.72.32a2.82,2.82,0,0,1,.54.36,1.41,1.41,0,0,1,.34.47,1.52,1.52,0,0,1,.12.62,1.51,1.51,0,0,1-.2.78,1.58,1.58,0,0,1-.52.54,2.26,2.26,0,0,1-.76.32,3.29,3.29,0,0,1-.89.11,3.39,3.39,0,0,1-1.61-.36v-1a2.82,2.82,0,0,0,1.73.58c.84,0,1.27-.28,1.27-.84a.69.69,0,0,0-.11-.39,1.07,1.07,0,0,0-.3-.3,1.94,1.94,0,0,0-.43-.24c-.17-.07-.34-.15-.54-.22s-.49-.21-.7-.32a2.47,2.47,0,0,1-.5-.36,1.35,1.35,0,0,1-.3-.46,1.62,1.62,0,0,1-.11-.61,1.37,1.37,0,0,1,.18-.72,1.6,1.6,0,0,1,.47-.5,2.19,2.19,0,0,1,.66-.28,3.12,3.12,0,0,1,.74-.09h2.78V11.83l1-.31V13.3h1.51v.82H78.62V17.5a1.45,1.45,0,0,0,.2.86.84.84,0,0,0,.68.26,1,1,0,0,0,.63-.2Z"/></g></g></g></svg>