<svg id="Layer_1" data-name="Layer 1" xmlns="http://www.w3.org/2000/svg" viewBox="0 0 72 29"><defs><style>.cls-1{fill:#f9e8d4;}.cls-2{fill:#ff9017;}.cls-3{fill:#ef7d0a;}.cls-4{fill:#ef2929;}.cls-5{fill:#d31a1a;}.cls-6{fill:#bf5732;}.cls-7{fill:#db6e0b;}.cls-8{fill:#1bcf92;}.cls-9{isolation:isolate;}.cls-10{fill:#ff4c2d;}</style></defs><g id="Group_61" data-name="Group 61"><g id="Group_32" data-name="Group 32"><g id="food"><circle id="Ellipse_23" data-name="Ellipse 23" class="cls-1" cx="15.21" cy="14.53" r="13"/><circle id="Ellipse_24" data-name="Ellipse 24" class="cls-2" cx="15.21" cy="14.08" r="11.08"/><path id="Path_43" data-name="Path 43" class="cls-3" d="M26.29,14.08A11.09,11.09,0,0,1,7.1,21.64,11.08,11.08,0,0,0,21.72,5.11,11.08,11.08,0,0,1,26.29,14.08Z"/><circle id="Ellipse_25" data-name="Ellipse 25" class="cls-4" cx="9.7" cy="9.61" r="2.12"/><path id="Path_44" data-name="Path 44" class="cls-5" d="M10.57,11.55a2.13,2.13,0,0,1-2.8-1.07,1.08,1.08,0,0,1-.08-.19,2.13,2.13,0,0,0,2.92-.7,2.11,2.11,0,0,0,.2-1.78,2.12,2.12,0,0,1-.24,3.74Z"/><g id="Group_20" data-name="Group 20"><path id="Path_45" data-name="Path 45" class="cls-1" d="M9.7,9.14a.38.38,0,0,1-.38-.38h0V8.49a.38.38,0,0,1,.76,0v.27a.38.38,0,0,1-.38.38Z"/><path id="Path_46" data-name="Path 46" class="cls-1" d="M9.7,11.12a.38.38,0,0,1-.38-.38h0v-.27a.38.38,0,0,1,.76,0v.27a.38.38,0,0,1-.38.38Z"/><path id="Path_47" data-name="Path 47" class="cls-1" d="M10.82,10h-.27a.39.39,0,0,1-.38-.39.38.38,0,0,1,.38-.38h.27a.38.38,0,0,1,.38.38.39.39,0,0,1-.38.39Z"/><path id="Path_48" data-name="Path 48" class="cls-1" d="M8.84,10H8.58a.4.4,0,0,1-.39-.39.39.39,0,0,1,.39-.38h.26a.39.39,0,0,1,.39.38A.4.4,0,0,1,8.84,10Z"/></g><circle id="Ellipse_26" data-name="Ellipse 26" class="cls-4" cx="20.94" cy="10.24" r="2.12"/><path id="Path_49" data-name="Path 49" class="cls-5" d="M21.81,12.17A2.12,2.12,0,0,1,19,11.11a1.67,1.67,0,0,1-.08-.2,2.12,2.12,0,0,0,3.12-2.48,2.12,2.12,0,0,1,.7,2.92,2.08,2.08,0,0,1-.94.82Z"/><g id="Group_21" data-name="Group 21"><path id="Path_50" data-name="Path 50" class="cls-1" d="M21.42,9.91A.38.38,0,0,1,21,9.53a.36.36,0,0,1,.07-.22l.15-.22A.38.38,0,0,1,21.78,9a.4.4,0,0,1,.1.54l-.15.22A.39.39,0,0,1,21.42,9.91Z"/><path id="Path_51" data-name="Path 51" class="cls-1" d="M20.31,11.55a.38.38,0,0,1-.38-.38A.34.34,0,0,1,20,11l.15-.22a.38.38,0,1,1,.63.42l-.15.22A.38.38,0,0,1,20.31,11.55Z"/><path id="Path_52" data-name="Path 52" class="cls-1" d="M21.87,11.25a.31.31,0,0,1-.21-.07L21.44,11a.38.38,0,1,1,.42-.64l.22.15a.38.38,0,0,1,.11.53.4.4,0,0,1-.32.17Z"/><path id="Path_53" data-name="Path 53" class="cls-1" d="M20.23,10.14a.37.37,0,0,1-.21-.06l-.23-.15a.38.38,0,1,1,.43-.63h0l.22.14a.39.39,0,0,1,.11.53.37.37,0,0,1-.32.17Z"/></g><circle id="Ellipse_27" data-name="Ellipse 27" class="cls-4" cx="19.82" cy="18.69" r="2.12"/><path id="Path_54" data-name="Path 54" class="cls-5" d="M20.69,20.62a2.12,2.12,0,0,1-2.8-1.06,1.59,1.59,0,0,1-.07-.2,2.12,2.12,0,0,0,3.12-2.48,2.11,2.11,0,0,1-.24,3.74Z"/><g id="Group_22" data-name="Group 22"><path id="Path_55" data-name="Path 55" class="cls-1" d="M19.47,18.29a.39.39,0,0,1-.35-.23l-.1-.24a.38.38,0,0,1,.19-.51.39.39,0,0,1,.51.2l.1.24a.39.39,0,0,1-.19.51.4.4,0,0,1-.15,0Z"/><path id="Path_56" data-name="Path 56" class="cls-1" d="M20.28,20.09a.36.36,0,0,1-.34-.22l-.11-.24a.38.38,0,0,1,.19-.51.39.39,0,0,1,.51.19l.11.24a.38.38,0,0,1-.35.54Z"/><path id="Path_57" data-name="Path 57" class="cls-1" d="M20.6,18.72a.38.38,0,0,1-.15-.73l.24-.11a.38.38,0,1,1,.31.7l-.24.11A.41.41,0,0,1,20.6,18.72Z"/><path id="Path_58" data-name="Path 58" class="cls-1" d="M18.8,19.53a.38.38,0,0,1-.38-.38.37.37,0,0,1,.22-.35l.25-.11a.37.37,0,0,1,.5.19.38.38,0,0,1-.19.51L19,19.5A.45.45,0,0,1,18.8,19.53Z"/></g><g id="Group_23" data-name="Group 23"><path id="Path_59" data-name="Path 59" class="cls-6" d="M7,15.46l.62.44.61.43.62.44a.44.44,0,0,0,.6-.1l.38-.56a.42.42,0,0,0-.1-.59l-.3-.21.41-.58a.4.4,0,0,0-.09-.55l-.61-.43a.39.39,0,0,0-.54.1l-.41.58-.3-.22a.44.44,0,0,0-.6.1l-.38.55A.43.43,0,0,0,7,15.46Z"/><path id="Path_60" data-name="Path 60" class="cls-6" d="M16.67,5.82,15.93,6l-.73.16-.75.15a.43.43,0,0,0-.33.5l.14.66a.42.42,0,0,0,.5.33l.36-.08.15.7a.39.39,0,0,0,.46.3l.73-.15a.4.4,0,0,0,.3-.47l-.14-.69L17,7.3a.43.43,0,0,0,.33-.5l-.14-.66A.42.42,0,0,0,16.67,5.82Z"/><path id="Path_61" data-name="Path 61" class="cls-6" d="M13.86,21.42l-.54-.54-.53-.53-.54-.54a.43.43,0,0,0-.6,0l-.48.48a.43.43,0,0,0,0,.6l.27.26-.5.5a.39.39,0,0,0,0,.56l.52.52a.4.4,0,0,0,.56,0l.5-.5.26.27a.44.44,0,0,0,.6,0l.48-.48A.51.51,0,0,0,13.86,21.42Z"/></g><path id="Path_62" data-name="Path 62" class="cls-7" d="M13.12,14.46h1.32l-.6.59a.38.38,0,1,0,.54.54h0l.44-.44v1.5a.39.39,0,1,0,.77,0v-2.2h1.7a.38.38,0,1,0,0-.76h-1.7v-2.2a.39.39,0,0,0-.77,0v2.2h-1.7a.38.38,0,0,0,0,.76Z"/><g id="Group_24" data-name="Group 24"><path id="Path_63" data-name="Path 63" class="cls-8" d="M19.42,7.16A.37.37,0,0,1,19.09,7l-.58-1a.39.39,0,0,1,.13-.53.37.37,0,0,1,.52.13l.58,1a.38.38,0,0,1-.13.52A.33.33,0,0,1,19.42,7.16Z"/><path id="Path_64" data-name="Path 64" class="cls-8" d="M12.18,6.59a.38.38,0,0,1-.38-.38.4.4,0,0,1,0-.15l.43-1a.39.39,0,0,1,.5-.2.38.38,0,0,1,.21.5l-.44,1A.37.37,0,0,1,12.18,6.59Z"/><path id="Path_65" data-name="Path 65" class="cls-8" d="M12.62,12.38a.38.38,0,0,1-.18-.72l1-.53a.38.38,0,0,1,.36.68l-1,.53A.39.39,0,0,1,12.62,12.38Z"/><path id="Path_66" data-name="Path 66" class="cls-8" d="M18.71,23.1a.33.33,0,0,1-.17,0l-1-.5a.37.37,0,0,1-.17-.51.38.38,0,0,1,.51-.18l1,.5a.39.39,0,0,1,.17.52.37.37,0,0,1-.34.21Z"/><path id="Path_67" data-name="Path 67" class="cls-8" d="M23,16.54a.37.37,0,0,1-.38-.38.36.36,0,0,1,.3-.37l1.1-.25a.38.38,0,0,1,.17.75l-1.1.24Z"/><path id="Path_68" data-name="Path 68" class="cls-8" d="M19.09,15.07a.39.39,0,0,1-.39-.38.4.4,0,0,1,.08-.23l.66-.91a.37.37,0,0,1,.53-.08.38.38,0,0,1,.09.53h0l-.66.91A.4.4,0,0,1,19.09,15.07Z"/><path id="Path_69" data-name="Path 69" class="cls-8" d="M6.73,12.62a.39.39,0,0,1-.21-.06l-.93-.64a.38.38,0,0,1-.1-.53.38.38,0,0,1,.53-.1l.93.64a.38.38,0,0,1,.11.53.42.42,0,0,1-.33.17Z"/><path id="Path_70" data-name="Path 70" class="cls-8" d="M8.34,18.66h0l-1.54-.1a.39.39,0,1,1,0-.77h0l1.54.11a.39.39,0,0,1,.37.4.4.4,0,0,1-.4.37h0Z"/></g></g></g><g id="Dinner" class="cls-9"><g class="cls-9"><path class="cls-10" d="M36.31,24.53v-8.4h2.32q4.44,0,4.44,4.1a4.09,4.09,0,0,1-1.24,3.12,4.55,4.55,0,0,1-3.3,1.18Zm1-7.51v6.62h1.25a3.57,3.57,0,0,0,2.58-.88A3.34,3.34,0,0,0,42,20.25Q42,17,38.6,17Z"/><path class="cls-10" d="M45.08,17a.62.62,0,0,1-.44-.18.57.57,0,0,1-.18-.44.61.61,0,0,1,.18-.45.62.62,0,0,1,.44-.18.61.61,0,0,1,.45.18.58.58,0,0,1,.19.45.58.58,0,0,1-.19.44A.61.61,0,0,1,45.08,17Zm.47,7.52h-1v-6h1Z"/><path class="cls-10" d="M52.48,24.53h-1V21.11c0-1.27-.47-1.91-1.4-1.91a1.52,1.52,0,0,0-1.19.54,2,2,0,0,0-.47,1.37v3.42h-1v-6h1v1h0a2.17,2.17,0,0,1,2-1.14A1.83,1.83,0,0,1,52,19a2.86,2.86,0,0,1,.52,1.84Z"/><path class="cls-10" d="M59.27,24.53h-1V21.11c0-1.27-.47-1.91-1.4-1.91a1.52,1.52,0,0,0-1.19.54,2,2,0,0,0-.47,1.37v3.42h-1v-6h1v1h0a2.17,2.17,0,0,1,2-1.14,1.83,1.83,0,0,1,1.51.64,2.8,2.8,0,0,1,.52,1.84Z"/><path class="cls-10" d="M65.9,21.77H61.67a2.19,2.19,0,0,0,.54,1.55,1.85,1.85,0,0,0,1.41.55,3,3,0,0,0,1.87-.67v.9a3.53,3.53,0,0,1-2.1.57,2.53,2.53,0,0,1-2-.81,3.34,3.34,0,0,1-.73-2.3,3.29,3.29,0,0,1,.79-2.29,2.58,2.58,0,0,1,2-.88,2.28,2.28,0,0,1,1.82.76,3.19,3.19,0,0,1,.64,2.12Zm-1-.81a2,2,0,0,0-.4-1.3,1.4,1.4,0,0,0-1.1-.46,1.54,1.54,0,0,0-1.16.49A2.21,2.21,0,0,0,61.68,21Z"/><path class="cls-10" d="M70.48,19.51a1.14,1.14,0,0,0-.72-.2,1.24,1.24,0,0,0-1,.58,2.67,2.67,0,0,0-.41,1.58v3.06h-1v-6h1v1.24h0a2.17,2.17,0,0,1,.63-1,1.44,1.44,0,0,1,.94-.35,1.65,1.65,0,0,1,.57.08Z"/></g></g></g></svg>