<svg xmlns="http://www.w3.org/2000/svg" width="172.762" height="22.691" viewBox="0 0 172.762 22.691"><defs><style>.a{fill:#fff;}</style></defs><path class="a" d="M16.007,5.566H11.733V24.313a.482.482,0,0,1-.482.482H10.057a.482.482,0,0,1-.482-.482V5.566H5.292a.482.482,0,0,1-.482-.482V3.962a.482.482,0,0,1,.482-.482H16.007a.482.482,0,0,1,.482.482V5.084A.482.482,0,0,1,16.007,5.566Z" transform="translate(-4.81 -2.534)"/><path class="a" d="M40.929,22.483a8,8,0,0,1-2.361,5.859,7.9,7.9,0,0,1-5.839,2.409,8.1,8.1,0,0,1-8.191-8.244,8.191,8.191,0,0,1,2.149-5.7,7.786,7.786,0,0,1,6.042-2.655,7.791,7.791,0,0,1,6.027,2.64A8.191,8.191,0,0,1,40.929,22.483Zm-2.072.043a6.788,6.788,0,0,0-3.585-5.955.482.482,0,0,0-.145-.067q-4.221-1.171-6.745,1.532a6.336,6.336,0,0,0-1.768,4.49,6.456,6.456,0,0,0,.795,3.136,5.82,5.82,0,0,0,2.24,2.313,6.128,6.128,0,0,0,3.093.809,5.676,5.676,0,0,0,5.3-3.079A6.413,6.413,0,0,0,38.857,22.526Z" transform="translate(-15.032 -8.061)"/><path class="a" d="M76.968,22.738a14.236,14.236,0,0,1-.482,4.23,5.82,5.82,0,0,1-2.563,3.257,7.188,7.188,0,0,1-3.854.964q-4.534,0-6.143-3.551a12.608,12.608,0,0,1-.766-5.03V15.482A.482.482,0,0,1,63.642,15h1.094a.482.482,0,0,1,.482.482v6.87a15.519,15.519,0,0,0,.289,3.705A4.129,4.129,0,0,0,67.241,28.4a5.526,5.526,0,0,0,5.589.043,4.11,4.11,0,0,0,1.734-2.231,15.187,15.187,0,0,0,.3-3.854v-6.88A.482.482,0,0,1,75.349,15h1.123a.482.482,0,0,1,.482.482Z" transform="translate(-35.047 -8.504)"/><path class="a" d="M104.624,15.138l-.573.935a.482.482,0,0,1-.569.2,2.26,2.26,0,0,0-.708-.14q-2.409,0-3.373,3.416A24.889,24.889,0,0,0,99.026,25v4.847a.482.482,0,0,1-.482.482H97.412a.482.482,0,0,1-.482-.482v-14.8a.482.482,0,0,1,.482-.482h1.123a.482.482,0,0,1,.482.482v1.836q1.836-2.722,4.09-2.727a3.243,3.243,0,0,1,1.3.294.482.482,0,0,1,.222.694Z" transform="translate(-52.547 -8.063)"/><path class="a" d="M137.8,10.453h-2.737V23.986a.482.482,0,0,1-.482.482h-1.074a.482.482,0,0,1-.482-.482V10.453h-2.284a.482.482,0,0,1-.482-.482V9.186a.482.482,0,0,1,.482-.482h2.284V3.332a.482.482,0,0,1,.482-.482H134.6a.482.482,0,0,1,.482.482V8.7h2.737a.482.482,0,0,1,.482.482v.785a.482.482,0,0,1-.5.482Z" transform="translate(-69.819 -2.208)"/><path class="a" d="M163.773,24.214h-1.079a.482.482,0,0,1-.482-.482V16.7A19.244,19.244,0,0,0,162,13.065a3.707,3.707,0,0,0-3.96-3.141,5.006,5.006,0,0,0-3.286,1.209,5.651,5.651,0,0,0-1.927,3.021,20.55,20.55,0,0,0-.289,4.283v5.3a.482.482,0,0,1-.482.482h-1.079a.482.482,0,0,1-.482-.482V2.842a.482.482,0,0,1,.482-.482h1.079a.482.482,0,0,1,.482.482v8.431a7.23,7.23,0,0,1,5.9-3.233,5.68,5.68,0,0,1,3.117.891,5.237,5.237,0,0,1,2.043,2.409,12.858,12.858,0,0,1,.66,4.765v7.627A.482.482,0,0,1,163.773,24.214Z" transform="translate(-80.302 -1.954)"/><path class="a" d="M199.626,22.617H186.473a.482.482,0,0,0-.482.506,6.427,6.427,0,0,0,1.624,3.9,5.526,5.526,0,0,0,4.283,1.85,6.263,6.263,0,0,0,4.269-1.532,8.489,8.489,0,0,0,1.489-1.85.482.482,0,0,1,.631-.178l.882.482a.482.482,0,0,1,.2.66,8.123,8.123,0,0,1-4.187,3.772,8.537,8.537,0,0,1-3.112.535,7.94,7.94,0,0,1-5.878-2.346,8.032,8.032,0,0,1-2.322-5.9,8.451,8.451,0,0,1,1.836-5.348,7.526,7.526,0,0,1,6.263-2.987,7.771,7.771,0,0,1,6.418,3.04,8.412,8.412,0,0,1,1.725,4.89.482.482,0,0,1-.482.5ZM197.9,20.839a5.85,5.85,0,0,0-3.233-4.134,6.263,6.263,0,0,0-2.679-.593A5.782,5.782,0,0,0,188,17.6a6.682,6.682,0,0,0-1.836,3.242Z" transform="translate(-97.596 -8.079)"/><path class="a" d="M246.007,3.229a.482.482,0,0,1-.641.453,4.028,4.028,0,0,0-1.272-.236q-1.214,0-1.474.781a7.71,7.71,0,0,0-.1,1.662V8.013h2.8a.482.482,0,0,1,.482.482V9.28a.482.482,0,0,1-.482.482H242.5V23.3a.482.482,0,0,1-.482.482h-1.079a.482.482,0,0,1-.482-.482V9.762h-1.59a.482.482,0,0,1-.482-.482V8.495a.482.482,0,0,1,.482-.482h1.59V5.546a7.994,7.994,0,0,1,.188-2.028,2.582,2.582,0,0,1,1.185-1.566,3.532,3.532,0,0,1,1.807-.434,7.92,7.92,0,0,1,2.014.308.482.482,0,0,1,.352.482Z" transform="translate(-125.852 -1.517)"/><path class="a" d="M270.242,22.477a8,8,0,0,1-2.361,5.859,8.364,8.364,0,0,1-11.688,0,7.983,7.983,0,0,1-2.366-5.868,8.208,8.208,0,1,1,16.415.01Zm-2.072.043a6.788,6.788,0,0,0-3.585-5.955.482.482,0,0,0-.145-.067q-4.221-1.171-6.745,1.532a6.336,6.336,0,0,0-1.768,4.49,6.456,6.456,0,0,0,.795,3.136,5.82,5.82,0,0,0,2.24,2.313,6.128,6.128,0,0,0,3.093.809,5.675,5.675,0,0,0,5.3-3.079A6.413,6.413,0,0,0,268.171,22.52Z" transform="translate(-133.851 -8.055)"/><path class="a" d="M307.922,22.487a8,8,0,0,1-2.361,5.859,8.364,8.364,0,0,1-11.688,0,8,8,0,0,1-2.366-5.868,8.208,8.208,0,1,1,16.415.01Zm-2.072.043a6.788,6.788,0,0,0-3.585-5.955.482.482,0,0,0-.145-.067q-4.221-1.171-6.745,1.532a6.336,6.336,0,0,0-1.768,4.49,6.456,6.456,0,0,0,.795,3.136,5.82,5.82,0,0,0,2.24,2.313,6.129,6.129,0,0,0,3.093.809,5.676,5.676,0,0,0,5.3-3.079,6.413,6.413,0,0,0,.814-3.18Z" transform="translate(-153.377 -8.066)"/><path class="a" d="M345.25,24.214H344.2a.482.482,0,0,1-.482-.482V21.5a7.892,7.892,0,0,1-6.326,3.117,7.661,7.661,0,0,1-5.782-2.462,8.191,8.191,0,0,1-2.313-5.868,8.007,8.007,0,0,1,2.366-5.825,7.757,7.757,0,0,1,5.782-2.409,7.367,7.367,0,0,1,6.263,3.305V2.842a.482.482,0,0,1,.482-.482h1.05a.482.482,0,0,1,.482.482V23.732a.482.482,0,0,1-.472.482Zm-1.4-7.8a6.326,6.326,0,0,0-1.773-4.558,5.907,5.907,0,0,0-4.457-1.85,5.782,5.782,0,0,0-5.391,3.165,6.374,6.374,0,0,0,0,6.369,6.215,6.215,0,0,0,2.289,2.356,6,6,0,0,0,3.088.848,6.326,6.326,0,0,0,3.151-.838,5.9,5.9,0,0,0,2.293-2.269A6.529,6.529,0,0,0,343.849,16.419Z" transform="translate(-172.96 -1.954)"/></svg>