<svg xmlns="http://www.w3.org/2000/svg" width="40.927" height="40.113" viewBox="0 0 40.927 40.113"><defs><style>.a{fill:#fff;}</style></defs><g transform="translate(0 0)"><g transform="translate(0 0)"><path class="a" d="M126.155,69.7a12.732,12.732,0,0,1-2.21,2.916L119.6,76.95l3.91,16.292a3.085,3.085,0,0,1-.847,2.933L120.7,98.089a1.546,1.546,0,0,1-2.444-.387l-6.739-12.81-8.5,6.028a6.989,6.989,0,0,0-3.743-3.857L105.46,78.8,92.731,71.906a1.546,1.546,0,0,1-.358-2.444l1.939-1.935a3.1,3.1,0,0,1,2.943-.815L113.5,70.818l4.391-4.3a12.747,12.747,0,0,1,2.939-2.173c1.454-.774,3.955-1.764,5.425-.556C127.988,65.2,127.031,68.081,126.155,69.7Z" transform="translate(-86.294 -63.227)"/><path class="a" d="M80.067,187.174a4.8,4.8,0,0,1-.407.407l-6.6,6.069a1.7,1.7,0,0,1-.128.114,1.3,1.3,0,0,1-1.684-1.977s.287-.263.291-.269l4.356-4a1.369,1.369,0,0,0,.181-.2,1.21,1.21,0,0,0-.024-1.438,1.193,1.193,0,0,0-1.737-.134L68,191.548a1.1,1.1,0,0,1-1.849-.815,1.09,1.09,0,0,1,.356-.815l.324-.3,5.991-5.5a1.221,1.221,0,0,0,.173-.2,1.193,1.193,0,0,0-1.788-1.556l-4.684,4.3a1.324,1.324,0,0,1-1.861-1.88l.124-.118.226-.2,6.38-5.867c4.48-4.12,11.881,1.458,9.688,6.941A5.688,5.688,0,0,1,80.067,187.174Z" transform="translate(-64.272 -153.964)"/></g></g></svg>