<svg id="Layer_1" data-name="Layer 1" xmlns="http://www.w3.org/2000/svg" viewBox="0 0 63 26"><defs><style>.cls-1{fill:#ef2929;}.cls-2{fill:#d31a1a;}.cls-3{fill:#ff9017;}.cls-4{fill:#ef7d0a;}.cls-5{fill:#bf5732;}.cls-6{fill:#b24928;}.cls-7{fill:#1bcf92;}.cls-8{fill:#11ba7d;}.cls-9{fill:#fec007;}.cls-10{fill:#efad0a;}.cls-11{fill:#db6e0b;}.cls-12{isolation:isolate;}.cls-13{fill:#ff4c2d;}</style></defs><g id="Group_60" data-name="Group 60"><g id="Group_31" data-name="Group 31"><g id="sandwich"><rect id="Rectangle_10" data-name="Rectangle 10" class="cls-1" x="5.88" y="18.47" width="17.41" height="1.76"/><rect id="Rectangle_11" data-name="Rectangle 11" class="cls-2" x="21.94" y="18.47" width="1.35" height="1.76"/><path id="Path_33" data-name="Path 33" class="cls-3" d="M22.93,23.9H6.25A1.3,1.3,0,0,1,5,22.6v-2a.42.42,0,0,1,.42-.42H23.81a.42.42,0,0,1,.42.42h0v2A1.3,1.3,0,0,1,22.93,23.9Z"/><path id="Path_34" data-name="Path 34" class="cls-4" d="M24.23,20.66V22.6a1.3,1.3,0,0,1-1.3,1.3H21.68A1.3,1.3,0,0,0,23,22.6V20.66a.42.42,0,0,0-.42-.42h1.25a.42.42,0,0,1,.42.42Z"/><path id="Path_35" data-name="Path 35" class="cls-5" d="M23.69,18.48H5.48a1.2,1.2,0,0,1-1.2-1.2h0v-.92a1.2,1.2,0,0,1,1.2-1.2H23.69a1.2,1.2,0,0,1,1.2,1.2h0v.92a1.2,1.2,0,0,1-1.2,1.2Z"/><path id="Path_36" data-name="Path 36" class="cls-6" d="M24.89,16.36v.92a1.2,1.2,0,0,1-1.2,1.2H22.44a1.2,1.2,0,0,0,1.2-1.2h0v-.92a1.2,1.2,0,0,0-1.2-1.2h1.25a1.2,1.2,0,0,1,1.2,1.2Z"/><path id="Path_37" data-name="Path 37" class="cls-7" d="M22.91,16.2l-.78-.52a.24.24,0,0,0-.28,0l-1,.68a.26.26,0,0,1-.29,0l-.94-.68a.26.26,0,0,0-.29,0l-.95.68a.24.24,0,0,1-.28,0l-.95-.68a.26.26,0,0,0-.29,0l-.94.68a.26.26,0,0,1-.29,0l-.95-.68a.24.24,0,0,0-.28,0l-.95.68a.26.26,0,0,1-.29,0l-.94-.68a.26.26,0,0,0-.29,0l-1,.68a.24.24,0,0,1-.28,0l-.95-.68a.24.24,0,0,0-.28,0l-.95.68a.26.26,0,0,1-.29,0l-.95-.68a.24.24,0,0,0-.28,0l-.78.52a.24.24,0,0,1-.34-.07.2.2,0,0,1,0-.13V13.3h17.4V16a.24.24,0,0,1-.25.24A.2.2,0,0,1,22.91,16.2Z"/><path id="Path_38" data-name="Path 38" class="cls-8" d="M23.29,13.3V16a.25.25,0,0,1-.25.24.28.28,0,0,1-.13,0l-.78-.53a.21.21,0,0,0-.19,0V13.29Z"/><path id="Path_40" data-name="Path 40" class="cls-3" d="M23.36,10.89H5.82A.89.89,0,0,1,4.93,10h0a9,9,0,0,1,9-9h1.37a9,9,0,0,1,9,9h0a.89.89,0,0,1-.88.89Z"/><path id="Path_41" data-name="Path 41" class="cls-4" d="M14.64,1h.63a9,9,0,0,1,9,9h0a.88.88,0,0,1-.88.89H22.6l0-.53a8.51,8.51,0,0,0-.05-1.43A9,9,0,0,0,16.4,1.45C15.82,1.27,15.23,1.18,14.64,1Z"/><rect id="Rectangle_12" data-name="Rectangle 12" class="cls-1" x="5.88" y="10.89" width="17.41" height="1.76"/><rect id="Rectangle_13" data-name="Rectangle 13" class="cls-2" x="21.94" y="10.89" width="1.35" height="1.76"/><path id="Path_42" data-name="Path 42" class="cls-9" d="M5.88,12.63v2a1.19,1.19,0,0,0,1.19,1.18h0a1.18,1.18,0,0,0,1.18-1.18v-.2a.25.25,0,0,1,.25-.24h7a.25.25,0,0,1,.25.24h0v2A1.25,1.25,0,0,0,17,17.59h0a1.25,1.25,0,0,0,1.24-1.24v-2a.25.25,0,0,1,.24-.25h4.79V12.63Z"/><rect id="Rectangle_14" data-name="Rectangle 14" class="cls-10" x="21.94" y="12.63" width="1.35" height="1.52"/><g id="Group_19" data-name="Group 19"><circle id="Ellipse_16" data-name="Ellipse 16" class="cls-11" cx="17.8" cy="4.15" r="0.38"/><circle id="Ellipse_17" data-name="Ellipse 17" class="cls-11" cx="15.45" cy="4.94" r="0.38"/><circle id="Ellipse_18" data-name="Ellipse 18" class="cls-11" cx="16.14" cy="3.27" r="0.38"/><circle id="Ellipse_19" data-name="Ellipse 19" class="cls-11" cx="14.12" cy="2.89" r="0.38"/><circle id="Ellipse_20" data-name="Ellipse 20" class="cls-11" cx="14.02" cy="4.53" r="0.38"/><circle id="Ellipse_21" data-name="Ellipse 21" class="cls-11" cx="11.37" cy="4.57" r="0.38"/><circle id="Ellipse_22" data-name="Ellipse 22" class="cls-11" cx="12.67" cy="3.27" r="0.38"/></g></g></g><g id="Lunch" class="cls-12"><g class="cls-12"><path class="cls-13" d="M36.37,21H32V12.63h1v7.51h3.37Z"/><path class="cls-13" d="M42.39,21h-1v-.95h0a2,2,0,0,1-1.85,1.09c-1.43,0-2.14-.86-2.14-2.56V15h1v3.43c0,1.26.49,1.9,1.45,1.9A1.49,1.49,0,0,0,41,19.85a2,2,0,0,0,.46-1.36V15h1Z"/><path class="cls-13" d="M49.31,21h-1V17.61c0-1.27-.47-1.91-1.4-1.91a1.48,1.48,0,0,0-1.19.55,2,2,0,0,0-.47,1.36V21h-1V15h1v1h0a2.16,2.16,0,0,1,2-1.14,1.82,1.82,0,0,1,1.5.64,2.82,2.82,0,0,1,.53,1.84Z"/><path class="cls-13" d="M55.21,20.76a3.1,3.1,0,0,1-1.64.42,2.73,2.73,0,0,1-2.08-.84,3,3,0,0,1-.78-2.16,3.33,3.33,0,0,1,.85-2.39,3,3,0,0,1,2.26-.9,3.1,3.1,0,0,1,1.4.3v1a2.47,2.47,0,0,0-1.43-.47,1.93,1.93,0,0,0-1.51.66,2.52,2.52,0,0,0-.59,1.73,2.43,2.43,0,0,0,.55,1.67,1.94,1.94,0,0,0,1.49.61,2.47,2.47,0,0,0,1.48-.52Z"/><path class="cls-13" d="M61.64,21h-1V17.58c0-1.25-.47-1.88-1.4-1.88a1.51,1.51,0,0,0-1.18.55,2,2,0,0,0-.48,1.39V21h-1V12.15h1V16h0a2.18,2.18,0,0,1,2-1.14c1.35,0,2,.82,2,2.45Z"/></g></g></g></svg>