<svg xmlns="http://www.w3.org/2000/svg" width="25.863" height="25.863" viewBox="0 0 25.863 25.863"><defs><style>.a{fill:#fff;stroke:#fff;stroke-width:2px;}</style></defs><g transform="translate(1 1)"><path class="a" d="M10.509,0A10.509,10.509,0,1,0,21.018,10.509,10.521,10.521,0,0,0,10.509,0Zm0,19.078a8.569,8.569,0,1,1,8.569-8.569A8.578,8.578,0,0,1,10.509,19.078Z"/><g transform="translate(16.361 16.361)"><path class="a" d="M358.263,356.892,352.7,351.33a.97.97,0,0,0-1.372,1.372l5.562,5.562a.97.97,0,0,0,1.372-1.372Z" transform="translate(-351.046 -351.046)"/></g></g></svg>